<!-- Design by Lights Thing © 2021. Todos los derechos reservados -->
<svg xmlns="http://www.w3.org/2000/svg" width="353" height="353" viewBox="0 0 353 353">
    <path d="M1326,501H1224a63.947,63.947,0,0,1-64-64V249h230V437a63.947,63.947,0,0,1-64,64Zm-52-109.03,27.87,27.87,16.97-16.971L1290.971,375l27.87-27.87-16.971-16.97L1274,358.029l-25.871-25.87-16.97,16.97,25.87,25.87-25.87,25.87,16.97,16.97,25.87-25.87Z" transform="translate(-1096 -148)" fill="#fff"/>
    <path d="M203,43H103a50,50,0,1,1,100,0Z" transform="translate(24 17)" fill="none" stroke="#fff" stroke-width="20"/>
    <rect width="320" height="80" rx="40" transform="translate(17 40)" fill="#fff"/>
</svg>